HIERARCHY
ROOT Hips
{
	OFFSET 0.000000 0.000000 0.000000
	CHANNELS 6 Xposition Yposition Zposition Zrotation Yrotation Xrotation 
	JOINT LHipJoint
	{
		OFFSET 0.000000 0.000000 0.000000
		CHANNELS 3 Zrotation Yrotation Xrotation
		JOINT LeftUpLeg
		{
			OFFSET 1.363060 -1.794630 0.839290
			CHANNELS 3 Zrotation Yrotation Xrotation
			JOINT LeftLeg
			{
				OFFSET 2.448110 -6.726130 0.000000
				CHANNELS 3 Zrotation Yrotation Xrotation
				JOINT LeftFoot
				{
					OFFSET 2.562200 -7.039590 0.000000
					CHANNELS 3 Zrotation Yrotation Xrotation
					JOINT LeftToeBase
					{
						OFFSET 0.157640 -0.433110 2.322550
						CHANNELS 3 Zrotation Yrotation Xrotation
						End Site
						{
							OFFSET 0.000000 0.000000 0.000000
						}
					}
				}
			}
		}
	}
	JOINT RHipJoint
	{
		OFFSET 0.000000 0.000000 0.000000
		CHANNELS 3 Zrotation Yrotation Xrotation
		JOINT RightUpLeg
		{
			OFFSET -1.305520 -1.794630 0.839290
			CHANNELS 3 Zrotation Yrotation Xrotation
			JOINT RightLeg
			{
				OFFSET -2.542530 -6.985550 0.000000
				CHANNELS 3 Zrotation Yrotation Xrotation
				JOINT RightFoot
				{
					OFFSET -2.568260 -7.056230 0.000000
					CHANNELS 3 Zrotation Yrotation Xrotation
					JOINT RightToeBase
					{
						OFFSET -0.164730 -0.452590 2.363150
						CHANNELS 3 Zrotation Yrotation Xrotation
						End Site
						{
							OFFSET 0.000000 0.000000 0.000000
						}
					}
				}
			}
		}
	}
	JOINT LowerBack
	{
		OFFSET 0.000000 0.000000 0.000000
		CHANNELS 3 Zrotation Yrotation Xrotation
		JOINT Spine
		{
			OFFSET 0.028270 2.035590 -0.193380
			CHANNELS 3 Zrotation Yrotation Xrotation
			JOINT Spine1
			{
				OFFSET 0.056720 2.048850 -0.042750
				CHANNELS 3 Zrotation Yrotation Xrotation
				JOINT Neck
				{
					OFFSET 0.000000 0.000000 0.000000
					CHANNELS 3 Zrotation Yrotation Xrotation
					JOINT Neck1
					{
						OFFSET -0.054170 1.746240 0.172020
						CHANNELS 3 Zrotation Yrotation Xrotation
						JOINT Head
						{
							OFFSET 0.104070 1.761360 -0.123970
							CHANNELS 3 Zrotation Yrotation Xrotation
							End Site
							{
								OFFSET 0.000000 0.000000 0.000000
							}
						}
					}
				}
				JOINT LeftShoulder
				{
					OFFSET 0.000000 0.000000 0.000000
					CHANNELS 3 Zrotation Yrotation Xrotation
					JOINT LeftArm
					{
						OFFSET 3.362410 1.200890 -0.311210
						CHANNELS 3 Zrotation Yrotation Xrotation
						JOINT LeftForeArm
						{
							OFFSET 4.983000 -0.000000 -0.000000
							CHANNELS 3 Zrotation Yrotation Xrotation
							JOINT LeftHand
							{
								OFFSET 3.483560 -0.000000 -0.000000
								CHANNELS 3 Zrotation Yrotation Xrotation
								JOINT LeftFingerBase
								{
									OFFSET 0.000000 0.000000 0.000000
									CHANNELS 3 Zrotation Yrotation Xrotation
									JOINT LeftHandIndex1
									{
										OFFSET 0.715260 -0.000000 -0.000000
										CHANNELS 3 Zrotation Yrotation Xrotation
										End Site
										{
											OFFSET 0.000000 0.000000 0.000000
										}
									}
								}
								JOINT LThumb
								{
									OFFSET 0.000000 0.000000 0.000000
									CHANNELS 3 Zrotation Yrotation Xrotation
									End Site
									{
										OFFSET 0.000000 0.000000 0.000000
									}
								}
							}
						}
					}
				}
				JOINT RightShoulder
				{
					OFFSET 0.000000 0.000000 0.000000
					CHANNELS 3 Zrotation Yrotation Xrotation
					JOINT RightArm
					{
						OFFSET -3.136600 1.374050 -0.404650
						CHANNELS 3 Zrotation Yrotation Xrotation
						JOINT RightForeArm
						{
							OFFSET -5.241900 -0.000000 -0.000000
							CHANNELS 3 Zrotation Yrotation Xrotation
							JOINT RightHand
							{
								OFFSET -3.444170 -0.000000 -0.000000
								CHANNELS 3 Zrotation Yrotation Xrotation
								JOINT RightFingerBase
								{
									OFFSET 0.000000 0.000000 0.000000
									CHANNELS 3 Zrotation Yrotation Xrotation
									JOINT RightHandIndex1
									{
										OFFSET -0.622530 -0.000000 -0.000000
										CHANNELS 3 Zrotation Yrotation Xrotation
										End Site
										{
											OFFSET 0.000000 0.000000 0.000000
										}
									}
								}
								JOINT RThumb
								{
									OFFSET 0.000000 0.000000 0.000000
									CHANNELS 3 Zrotation Yrotation Xrotation
									End Site
									{
										OFFSET 0.000000 0.000000 0.000000
									}
								}
							}
						}
					}
				}
			}
		}
	}
}
MOTION
Frames: 10
Frame Time: 0.008333
44.330061 17.862412 1.730393 175.549789 -87.365438 -167.001680 -8.402485 -5.037207 -1.927845 -8.686907 -5.556884 -27.039370 1.726806 10.822755 30.881849 2.670030 -4.015145 13.347497 4.520400 12.822400 38.707300 6.938681 2.960104 1.494537 11.853338 0.796863 -2.996495 -6.044109 -16.106934 46.607711 -0.997169 -4.639843 22.100918 -1.957300 -8.776600 25.099100 -2.983236 1.413327 1.850759 0.022201 1.317387 -1.832759 3.736249 1.141794 3.366677 -1.707184 -2.090136 0.653062 5.212869 -4.481194 -4.956009 -0.522000 -2.739800 -1.713200 -8.853615 -4.577609 0.256075 -75.714681 -1.216294 -21.238255 0.152406 -5.095405 -0.420044 -2.365309 -2.234473 32.132217 12.338910 43.881941 9.684600 -7.125000 0.000000 0.000000 -46.036900 73.303300 -32.600600 13.604449 4.065593 -0.873396 70.394750 7.192044 12.636148 -13.094359 19.827413 -4.397427 0.501867 -3.336441 6.090497 -24.539108 30.985886 -15.009100 7.125000 0.000000 0.000000 3.967000 7.002000 4.431000 
44.165357 17.892711 1.752590 165.010908 -86.671647 -156.294512 -8.585005 -5.097430 -1.772675 -9.421170 -5.144555 -26.664595 1.622853 10.657268 30.389027 2.592219 -3.718588 13.036045 4.551500 12.860200 38.847300 6.699509 2.935244 1.249759 11.025463 1.495819 -4.553105 -6.867973 -16.728071 49.510213 -1.297769 -3.581138 23.541251 -1.496500 -7.727500 21.889500 -3.770380 1.512740 1.944988 -0.043622 1.469400 -1.906412 4.015569 1.188306 3.119912 -1.785902 -1.925752 0.465945 5.188240 -4.268179 -5.152330 -0.531900 -2.646700 -1.726600 -8.845462 -4.654490 0.237033 -75.999832 -1.476933 -21.405776 0.458607 -5.549778 -0.450860 -2.284397 -2.205509 32.677249 10.897006 43.048623 8.426900 -7.125000 0.000000 0.000000 -45.231400 72.203900 -30.984000 13.662149 4.075880 -0.862824 70.589451 7.351981 10.820357 -12.335492 18.860555 -4.086298 0.364573 -3.438746 7.654090 -24.040997 31.098473 -14.746400 7.125000 0.000000 0.000000 4.294700 7.090000 4.804700 
43.985448 17.927450 1.746264 146.683971 -87.215915 -138.312499 -8.735546 -5.155549 -1.582845 -10.205889 -5.035159 -25.546850 1.468385 10.398948 29.714489 2.804154 -4.398730 13.264646 4.678900 13.012800 39.416300 6.559347 2.878127 1.094748 10.599058 0.845423 -5.708565 -7.638562 -17.316739 52.122322 -1.377728 -3.141571 23.873355 -1.000800 -6.366100 17.850400 -4.697463 1.116961 2.573734 -0.021347 0.933130 -1.945981 4.602466 0.868799 2.703519 -1.866998 -1.967232 0.510923 5.070433 -4.343145 -5.053192 -0.579200 -2.677600 -1.697100 -8.831852 -4.725888 0.208905 -76.271413 -1.318009 -21.710340 0.838177 -6.144217 -0.488542 -2.200176 -2.179271 33.270036 9.623285 42.132680 7.311100 -7.125000 0.000000 0.000000 -44.288600 71.103300 -29.279600 13.710775 4.051438 -0.871583 70.878145 7.311010 8.927422 -11.688732 17.998320 -3.818307 0.279140 -3.516867 9.031589 -23.849882 30.953842 -14.603800 7.125000 0.000000 0.000000 4.379300 6.969600 4.891900 
43.826293 17.957860 1.749038 138.427301 -87.086071 -129.999908 -8.772145 -5.153648 -1.438383 -10.785717 -4.814578 -24.943427 1.337534 10.176896 29.085163 2.875497 -4.604575 13.227934 4.670300 13.002700 39.378400 6.505954 2.914323 0.888397 10.093881 0.818933 -7.381706 -8.425234 -17.809258 54.643174 -1.358659 -3.035977 23.871210 -0.959800 -6.238200 17.477000 -5.112887 0.906315 2.488050 -0.103970 0.664184 -1.926079 4.647712 0.705152 2.828306 -1.528180 -1.846035 0.499842 4.778435 -4.206039 -5.210476 -0.733600 -2.622400 -1.788400 -8.840071 -4.769297 0.180951 -76.203447 -1.309536 -14.725478 1.181436 -7.281896 -0.572495 -1.983625 -2.413446 26.767562 9.989091 41.596478 7.534800 -7.125000 0.000000 0.000000 -42.736700 70.890000 -27.950900 13.743422 4.030989 -0.820245 71.496350 7.727062 6.850954 -11.057984 17.113126 -3.564224 0.208086 -3.599090 10.520095 -23.930440 30.686426 -14.608000 7.125000 0.000000 0.000000 4.279500 6.796300 4.768500 
43.642943 17.984164 1.765464 135.855939 -86.711617 -127.308847 -8.860036 -5.098246 -1.263903 -11.281233 -4.824346 -24.232885 1.215357 9.982764 28.460561 2.805152 -4.328724 12.809896 4.483400 12.777300 38.540600 6.435254 2.954111 0.710845 9.512487 0.871853 -9.030431 -9.145890 -18.206311 56.947214 -1.146239 -2.748825 22.092986 -0.613500 -5.012900 13.945300 -5.602297 0.736187 2.458724 -0.074040 0.420948 -2.080322 5.087268 0.597300 2.400141 -1.745252 -1.779373 0.871138 4.629574 -4.151344 -5.036745 -0.755700 -2.576200 -1.801000 -8.809886 -4.778197 0.108304 -76.721414 -0.750526 -9.714314 1.597763 -8.334240 -0.654929 -1.813318 -2.543486 22.233008 10.508172 41.096085 7.857800 -7.125000 0.000000 0.000000 -41.087800 70.721900 -26.614500 13.770499 4.006194 -0.838271 71.658991 7.337544 5.175588 -10.449818 16.322170 -3.328788 0.191865 -3.675534 11.555945 -24.120000 30.474386 -14.713000 7.125000 0.000000 0.000000 4.112200 6.697000 4.574800 
43.462035 18.008914 1.768350 132.234646 -86.634920 -124.051793 -8.900002 -5.008236 -1.064633 -11.671882 -4.665602 -23.052037 1.098171 9.825875 27.908508 2.866140 -4.483661 12.560157 4.406200 12.682100 38.190000 6.388093 3.012196 0.528818 9.252681 0.488478 -10.029216 -9.785373 -18.573267 58.995922 -0.911525 -2.546417 19.897596 -0.511800 -4.585600 12.730400 -5.777283 0.630244 2.412661 -0.139078 0.299008 -1.914730 5.086158 0.479574 2.891823 -1.718777 -1.858549 0.981059 4.766482 -4.255645 -5.291264 -0.682500 -2.641700 -1.929600 -8.837893 -4.809769 0.123590 -76.540744 -1.326522 -5.507899 1.953909 -9.155564 -0.746528 -1.681049 -2.684992 18.879497 10.262115 41.317742 7.723000 -7.125000 0.000000 0.000000 -41.892900 70.825000 -27.282300 13.803076 3.988419 -0.757281 72.130450 7.845615 2.936619 -9.878414 15.500878 -3.116295 0.187184 -3.760453 12.483719 -24.472109 30.218096 -14.913500 7.125000 0.000000 0.000000 3.843300 6.602900 4.268900 
43.296997 18.033997 1.780892 131.426237 -86.758708 -123.304140 -8.942205 -4.926577 -0.887682 -11.736054 -4.646286 -22.295420 1.003704 9.678272 27.424798 2.887495 -4.500085 12.395685 4.442100 12.726600 38.353400 6.338101 3.068639 0.387980 9.224443 0.188970 -11.488779 -10.373958 -18.847801 60.843964 -0.735217 -2.264848 17.918673 -0.502800 -4.545500 12.616700 -5.642168 0.473547 2.710750 -0.117714 0.063921 -2.010222 5.135259 0.385433 2.455182 -1.928510 -1.960901 1.418055 4.959373 -4.404542 -5.321302 -0.555300 -2.709900 -1.997700 -8.843246 -4.840539 0.081529 -76.599294 -1.240191 -1.462088 2.391816 -10.075491 -0.849639 -1.538877 -2.797377 15.692962 10.090664 41.292684 7.603000 -7.125000 0.000000 0.000000 -42.061400 70.767800 -27.354200 13.796548 3.988537 -0.771461 72.439626 7.468990 1.401928 -9.469220 14.934190 -2.959957 0.276198 -3.813926 12.801113 -25.130810 29.757322 -15.240900 7.125000 0.000000 0.000000 3.332900 6.337100 3.686300 
43.117199 18.062742 1.796985 133.833240 -86.602120 -125.943120 -9.008261 -4.853694 -0.689797 -11.920233 -4.433818 -21.353453 0.923594 9.568317 27.005234 2.859147 -4.356423 11.944286 4.434000 12.716600 38.316600 6.274349 3.095857 0.238039 9.084422 0.138493 -12.619681 -10.833966 -19.061479 62.289526 -0.606638 -1.994428 16.156025 -0.550500 -4.753100 13.205700 -5.452490 0.382495 2.828217 -0.179634 -0.051738 -2.003069 4.842866 0.314812 2.405051 -1.565598 -1.770045 1.020372 4.631202 -4.123941 -4.895005 -0.765500 -2.552500 -1.790500 -8.853049 -4.851352 0.075700 -76.317025 -1.565223 1.383926 2.682906 -10.647940 -0.920832 -1.510548 -2.813647 13.808906 10.818364 40.552111 8.060000 -7.125000 0.000000 0.000000 -39.650600 70.494700 -25.401400 13.818051 4.002478 -0.769753 72.926445 7.237290 0.195069 -9.125560 14.445677 -2.823678 0.386868 -3.841616 12.663223 -25.652592 29.222757 -15.427800 7.125000 0.000000 0.000000 2.885300 5.936400 3.172100 
42.951940 18.081499 1.821957 138.905457 -86.173110 -130.995901 -9.121466 -4.809697 -0.539400 -12.114046 -4.386804 -20.667094 0.863130 9.485439 26.661766 2.704029 -3.817433 11.323928 4.502600 12.800800 38.627300 6.175944 3.111379 0.065725 8.779779 0.487864 -14.105835 -11.228365 -19.202342 63.503357 -0.520424 -1.703024 14.670445 -0.640100 -5.118400 14.246500 -5.538852 0.348989 2.770781 -0.110593 -0.085669 -2.010502 5.128002 0.275696 2.446550 -2.014941 -1.442327 0.946805 4.742117 -3.688596 -5.172768 -0.649200 -2.344300 -1.840600 -8.825359 -4.892577 0.075628 -76.645067 -2.230573 2.875303 2.894721 -10.996035 -0.974531 -1.535671 -2.772721 13.360614 11.433835 40.043413 8.447600 -7.125000 0.000000 0.000000 -37.834200 70.311500 -23.982200 13.864766 4.008646 -0.758659 72.726396 7.164401 -0.773675 -8.747225 13.931761 -2.683046 0.486871 -3.861388 12.098015 -25.791466 28.798662 -15.388200 7.125000 0.000000 0.000000 2.693000 5.550600 2.944000 
42.785460 18.096926 1.831945 135.725499 -86.536459 -128.022197 -9.129174 -4.700115 -0.378608 -12.189283 -4.533496 -19.736535 0.802820 9.402760 26.351753 2.752561 -3.950746 11.073166 4.634500 12.960000 39.218800 6.187508 3.176180 -0.053276 8.850083 0.022306 -15.369957 -11.515926 -19.307167 64.367248 -0.404239 -1.756747 13.265793 -0.701900 -5.354900 14.923600 -5.262584 0.058055 2.931247 -0.082800 -0.474994 -1.973068 5.085809 0.068875 2.507075 -2.263020 -1.465100 1.112957 4.948618 -3.711896 -5.276516 -0.510600 -2.354900 -1.893300 -8.841808 -4.914700 0.079451 -76.563552 -2.770203 4.890695 3.195219 -11.516540 -1.058654 -1.486247 -2.843190 12.577276 10.874072 40.663172 8.139600 -7.125000 0.000000 0.000000 -39.784100 70.604300 -25.587000 13.871109 4.014945 -0.736918 72.910683 7.109221 -2.017822 -8.408747 13.456049 -2.566532 0.569788 -3.899191 11.736538 -26.053178 28.616117 -15.528600 7.125000 0.000000 0.000000 2.480100 5.465400 2.707400 
